<svg width="168" height="50" viewBox="0 0 168 50" fill="none" xmlns="http://www.w3.org/2000/svg">
<g id="Group 26">
<path id="Vector" d="M24.5 1C10.9676 1 0 11.9676 0 25.5C0 39.0324 10.9676 50 24.5 50C38.0324 50 49 39.0324 49 25.5C49 11.9676 38.0324 1 24.5 1ZM29.9072 21.3465L29.6297 25.0119H25.8686V37.7404H21.1217V25.0119H18.5855V21.3465H21.1217V18.8869C21.1217 17.8055 21.1504 16.1307 21.9352 15.0875C22.7678 13.9869 23.9066 13.2404 25.8686 13.2404C29.065 13.2404 30.4049 13.6998 30.4049 13.6998L29.7732 17.4514C29.7732 17.4514 28.7205 17.1451 27.7348 17.1451C26.749 17.1451 25.8686 17.4992 25.8686 18.485V21.3465H29.9072Z" fill="white"/>
<g id="Group 7">
<path id="Vector_2" d="M84.5 49C98.031 49 109 38.031 109 24.5C109 10.969 98.031 0 84.5 0C70.969 0 60 10.969 60 24.5C60 38.031 70.969 49 84.5 49Z" fill="white"/>
<path id="Vector_3" d="M84.5 12.4485C88.4251 12.4485 88.8901 12.4634 90.4401 12.5341C91.8733 12.5995 92.6517 12.839 93.1697 13.0403C93.8559 13.307 94.3455 13.6255 94.8599 14.1399C95.3744 14.6544 95.6929 15.144 95.9596 15.8301C96.1608 16.3482 96.4003 17.1265 96.4657 18.5597C96.5364 20.1098 96.5514 20.5747 96.5514 24.4997C96.5514 28.4248 96.5364 28.8897 96.4657 30.4398C96.4003 31.8731 96.1608 32.6513 95.9596 33.1694C95.6929 33.8555 95.3744 34.3453 94.86 34.8596C94.3455 35.374 93.8559 35.6925 93.1697 35.9592C92.6517 36.1606 91.8733 36.3999 90.4401 36.4654C88.8903 36.536 88.4254 36.5511 84.5 36.5511C80.5747 36.5511 80.1099 36.536 78.56 36.4654C77.1268 36.3999 76.3484 36.1606 75.8304 35.9592C75.1442 35.6925 74.6546 35.374 74.1402 34.8596C73.6258 34.3453 73.3072 33.8555 73.0405 33.1694C72.8393 32.6513 72.5998 31.8731 72.5344 30.4398C72.4637 28.8897 72.4487 28.4248 72.4487 24.4997C72.4487 20.5747 72.4637 20.1098 72.5344 18.5597C72.5998 17.1265 72.8393 16.3482 73.0405 15.8301C73.3072 15.144 73.6257 14.6544 74.1402 14.14C74.6546 13.6255 75.1442 13.307 75.8304 13.0403C76.3484 12.839 77.1268 12.5995 78.56 12.5341C80.11 12.4634 80.575 12.4485 84.5 12.4485ZM84.5 9.7998C80.5078 9.7998 80.0071 9.81671 78.4392 9.88825C76.8747 9.95967 75.806 10.2081 74.8709 10.5716C73.9043 10.9471 73.0845 11.4498 72.2673 12.2671C71.45 13.0843 70.9474 13.904 70.5718 14.8707C70.2083 15.8057 69.9599 16.8743 69.8885 18.439C69.817 20.0069 69.8 20.5075 69.8 24.4997C69.8 28.4921 69.817 28.9926 69.8885 30.5605C69.9599 32.1252 70.2083 33.1938 70.5718 34.1288C70.9474 35.0954 71.45 35.9152 72.2673 36.7325C73.0845 37.5497 73.9043 38.0523 74.8709 38.4279C75.806 38.7914 76.8747 39.0398 78.4392 39.1112C80.0071 39.1828 80.5078 39.1997 84.5 39.1997C88.4923 39.1997 88.993 39.1828 90.5609 39.1112C92.1254 39.0398 93.1941 38.7914 94.1292 38.4279C95.0958 38.0523 95.9156 37.5497 96.7328 36.7325C97.55 35.9152 98.0527 35.0954 98.4283 34.1288C98.7918 33.1938 99.0402 32.1252 99.1116 30.5605C99.1831 28.9926 99.2001 28.4921 99.2001 24.4997C99.2001 20.5075 99.1831 20.0069 99.1116 18.439C99.0402 16.8743 98.7918 15.8057 98.4283 14.8707C98.0527 13.904 97.55 13.0843 96.7328 12.2671C95.9156 11.4498 95.0958 10.9471 94.1292 10.5716C93.1941 10.2081 92.1254 9.95967 90.5609 9.88825C88.993 9.81671 88.4923 9.7998 84.5 9.7998Z" fill="#222222"/>
<path id="Vector_4" d="M84.5073 16.958C80.3383 16.958 76.9587 20.3375 76.9587 24.5066C76.9587 28.6756 80.3383 32.0552 84.5073 32.0552C88.6764 32.0552 92.056 28.6756 92.056 24.5066C92.056 20.3375 88.6764 16.958 84.5073 16.958ZM84.5073 29.4066C81.8012 29.4066 79.6073 27.2127 79.6073 24.5066C79.6073 21.8004 81.8012 19.6066 84.5073 19.6066C87.2136 19.6066 89.4073 21.8004 89.4073 24.5066C89.4073 27.2127 87.2136 29.4066 84.5073 29.4066Z" fill="#222222"/>
<path id="Vector_5" d="M94.1171 16.6557C94.1171 17.6298 93.3274 18.4197 92.3531 18.4197C91.3789 18.4197 90.5891 17.6298 90.5891 16.6557C90.5891 15.6815 91.3789 14.8916 92.3531 14.8916C93.3274 14.8916 94.1171 15.6815 94.1171 16.6557Z" fill="#222222"/>
</g>
<path id="Vector_6" d="M143.5 0C129.968 0 119 10.9676 119 24.5C119 38.0324 129.968 49 143.5 49C157.032 49 168 38.0324 168 24.5C168 10.9676 157.032 0 143.5 0ZM153.281 20.691C153.29 20.9016 153.29 21.1217 153.29 21.3418C153.29 27.9932 148.228 35.6686 138.964 35.6686C136.121 35.6686 133.47 34.8359 131.25 33.41C131.642 33.4578 132.044 33.477 132.456 33.477C134.81 33.477 136.983 32.673 138.705 31.3236C136.504 31.2854 134.638 29.8307 134.006 27.8305C134.312 27.8879 134.628 27.9166 134.954 27.9166C135.413 27.9166 135.863 27.8592 136.284 27.7348C133.978 27.2754 132.245 25.2369 132.245 22.7965V22.7391C132.925 23.1123 133.7 23.342 134.523 23.3707C133.174 22.4711 132.284 20.9207 132.284 19.1789C132.284 18.2602 132.532 17.3893 132.963 16.6428C135.451 19.6957 139.155 21.6959 143.337 21.9064C143.251 21.5428 143.203 21.16 143.203 20.758C143.203 17.9826 145.462 15.724 148.237 15.724C149.682 15.724 150.994 16.3365 151.912 17.3127C153.061 17.083 154.133 16.6715 155.109 16.0877C154.736 17.2648 153.932 18.2506 152.898 18.8727C153.913 18.7482 154.889 18.4803 155.788 18.0783C155.118 19.0928 154.267 19.9732 153.281 20.691Z" fill="white"/>
</g>
</svg>
