<svg width="25" height="24" viewBox="0 0 25 24" fill="none" xmlns="http://www.w3.org/2000/svg">
<path d="M14.309 5.76028C15.4489 5.97795 16.4965 6.52357 17.3177 7.32733C18.139 8.13107 18.6965 9.15638 18.9188 10.272M14.309 1.19141C16.6773 1.44891 18.8857 2.48688 20.5717 4.13491C22.2576 5.78294 23.321 7.94306 23.587 10.2606M19.5023 22.8935C9.51192 22.8935 1.41309 14.967 1.41309 5.18917C1.41309 4.74802 1.42958 4.31064 1.46197 3.87759C1.49916 3.3806 1.51775 3.13211 1.65081 2.90591C1.76103 2.71856 1.95635 2.54089 2.15531 2.44699C2.39552 2.33362 2.67569 2.33362 3.23603 2.33362H6.52396C6.99517 2.33362 7.23077 2.33362 7.43274 2.40952C7.61115 2.47657 7.77001 2.58547 7.89536 2.72666C8.03726 2.88649 8.11778 3.1032 8.27882 3.53662L9.63972 7.19953C9.82704 7.70379 9.92075 7.95592 9.90488 8.19514C9.89087 8.40607 9.81723 8.60906 9.69236 8.78151C9.55075 8.97708 9.31569 9.11512 8.84558 9.39118L7.24833 10.3291C8.651 13.3548 11.1581 15.8117 14.2506 17.1824L15.209 15.6192C15.4911 15.159 15.6321 14.929 15.8318 14.7904C16.0081 14.6682 16.2155 14.5961 16.431 14.5824C16.6754 14.5669 16.9331 14.6586 17.4483 14.8419L21.1908 16.1739C21.6336 16.3315 21.8551 16.4103 22.0184 16.5492C22.1626 16.6719 22.274 16.8273 22.3423 17.002C22.42 17.1996 22.42 17.4302 22.42 17.8914V21.1094C22.42 21.6578 22.42 21.932 22.3041 22.1671C22.2081 22.3618 22.0267 22.553 21.8353 22.6609C21.6041 22.7911 21.3502 22.8092 20.8425 22.8457C20.3999 22.8774 19.953 22.8935 19.5023 22.8935Z" stroke="white" stroke-width="1.8" stroke-linecap="round" stroke-linejoin="round"/>
</svg>
